<svg version="1.1" id="Layer_1" xmlns="http://www.w3.org/2000/svg" xmlns:xlink="http://www.w3.org/1999/xlink" x="0px" y="0px"
	 width="100%" viewBox="0 0 682 536" enable-background="new 0 0 682 536" xml:space="preserve">
<path fill="#FFFFFF" opacity="1.000000" stroke="none" 
	d="
M1.000000,535.000000 
	C1.000000,357.030975 1.000000,179.061935 1.000000,1.046454 
	C228.262802,1.046454 455.525635,1.046454 682.894226,1.046454 
	C682.894226,179.565002 682.894226,358.130096 682.894226,537.000000 
	C456.640930,537.000000 230.281723,537.000000 3.549211,536.670898 
	C4.468524,535.045898 5.668196,533.638489 7.068720,532.472107 
	C16.637440,524.503357 26.259394,516.598450 35.842300,508.646637 
	C43.917953,501.945526 51.933388,495.171631 60.030693,488.496887 
	C71.024071,479.434906 82.120338,470.497253 93.079231,461.393982 
	C103.807487,452.482361 114.368156,443.368988 125.095581,434.456360 
	C136.053650,425.352142 147.173340,416.442535 158.133011,407.340271 
	C168.862045,398.429565 179.430450,389.325439 190.157852,380.412781 
	C201.115860,371.308533 212.227295,362.389008 223.186920,353.286713 
	C233.915924,344.375916 244.496490,335.286530 255.218979,326.367828 
	C266.299347,317.151459 277.506927,308.088135 288.594421,298.880280 
	C299.196136,290.075836 309.717957,281.175110 320.269470,272.310181 
	C330.566223,263.659332 340.689911,254.791245 351.211823,246.423691 
	C357.460938,241.454041 357.260193,226.720810 351.258270,221.529068 
	C342.109009,213.614868 333.683868,204.863174 324.956970,196.461166 
	C315.869904,187.712341 306.762451,178.984421 297.712769,170.197067 
	C284.478851,157.346756 271.355621,144.381653 258.053680,131.602386 
	C250.360092,124.211090 241.195618,119.610085 230.339417,120.083420 
	C214.871033,120.757828 199.421982,121.927635 183.976746,123.051781 
	C178.945938,123.417931 173.871796,123.958160 168.979553,125.108292 
	C166.790344,125.622963 163.588181,127.638916 163.351166,129.325623 
	C162.967514,132.055923 163.767883,135.948395 165.616974,137.820541 
	C172.799301,145.092468 180.670593,151.677612 188.140198,158.673477 
	C200.716125,170.451813 213.224716,182.302994 225.679733,194.209213 
	C236.242996,204.307053 246.682465,214.534302 257.203278,224.676712 
	C258.132874,225.572861 259.233185,226.302368 260.298767,227.045425 
	C270.055573,233.849258 272.172791,246.491867 264.690247,254.759415 
	C256.035217,264.322449 247.166916,273.692810 238.370209,283.127228 
	C228.778015,293.414764 219.173828,303.691193 209.553192,313.952148 
	C194.268051,330.254700 178.958740,346.534637 163.671692,362.835419 
	C153.935974,373.216766 144.229736,383.625763 134.496124,394.009094 
	C124.306984,404.878296 114.094742,415.725800 103.904015,426.593506 
	C94.054947,437.096924 84.271553,447.662445 74.367157,458.113342 
	C60.566551,472.675385 46.680813,487.156738 32.828938,501.670166 
	C32.024223,502.513306 31.185549,503.324066 30.381353,504.167694 
	C20.585539,514.443176 10.793210,524.721985 1.000000,535.000000 
M433.729553,412.951813 
	C440.053772,416.191162 446.582428,418.549774 453.873444,418.012390 
	C463.561737,417.298340 473.255737,416.661469 482.948639,416.011322 
	C493.139038,415.327850 503.355377,414.899292 513.504944,413.832031 
	C515.987732,413.570953 519.194092,411.799927 520.390625,409.746002 
	C522.019104,406.950775 521.473511,403.549957 518.489929,400.880493 
	C512.196594,395.249725 506.161865,389.329834 500.021027,383.528595 
	C487.980682,372.154083 475.911835,360.809509 463.907135,349.397522 
	C449.246552,335.460846 434.587921,321.521301 420.032623,307.475006 
	C413.224457,300.904999 412.927643,290.172363 419.369049,283.172180 
	C429.343262,272.332672 439.505920,261.666656 449.576233,250.915405 
	C459.191437,240.649948 468.777893,230.357559 478.399902,220.098480 
	C493.801117,203.677505 509.229462,187.281998 524.630249,170.860641 
	C534.252075,160.601288 543.816406,150.288040 553.457031,140.046417 
	C565.038025,127.743324 576.708252,115.524162 588.271973,103.204987 
	C596.644348,94.285637 604.864441,85.223404 613.227722,76.295448 
	C624.323486,64.450577 635.465881,52.649178 646.639038,40.877312 
	C654.519043,32.575073 662.540588,24.406649 670.385803,16.072075 
	C674.196045,12.024242 677.746948,7.732409 681.415283,3.551031 
	C679.705322,3.482932 678.556091,4.144910 677.553894,4.982719 
	C670.877686,10.563950 664.264282,16.220615 657.570740,21.780846 
	C646.354248,31.098146 635.077026,40.342236 623.856201,49.654320 
	C615.396545,56.674961 607.013123,63.787544 598.545349,70.798210 
	C587.569275,79.885521 576.505859,88.867645 565.548889,97.977837 
	C554.950439,106.789955 544.484192,115.761360 533.877136,124.562996 
	C522.911072,133.662506 511.798798,142.585831 500.836578,151.689896 
	C490.105621,160.601898 479.529236,169.700058 468.800232,178.614471 
	C457.840027,187.720947 446.733185,196.650818 435.771027,205.754959 
	C425.040070,214.667007 414.449829,223.748474 403.725647,232.668762 
	C392.642944,241.887222 381.469818,250.996933 370.342896,260.162231 
	C360.985107,267.870300 351.580780,275.523407 342.311096,283.336121 
	C338.413666,286.620911 334.001770,289.715057 331.247223,293.845245 
	C326.123718,301.527283 326.530914,311.127106 335.939636,319.757263 
	C356.609619,338.716736 376.386475,358.647552 396.620331,378.085632 
	C408.684326,389.675201 420.923401,401.082520 433.729553,412.951813 
z"/>
<path fill="#007BC6" opacity="1.000000" stroke="none" 
	d="
M0.999999,535.500000 
	C10.793210,524.721985 20.585539,514.443176 30.381353,504.167694 
	C31.185549,503.324066 32.024223,502.513306 32.828938,501.670166 
	C46.680813,487.156738 60.566551,472.675385 74.367157,458.113342 
	C84.271553,447.662445 94.054947,437.096924 103.904015,426.593506 
	C114.094742,415.725800 124.306984,404.878296 134.496124,394.009094 
	C144.229736,383.625763 153.935974,373.216766 163.671692,362.835419 
	C178.958740,346.534637 194.268051,330.254700 209.553192,313.952148 
	C219.173828,303.691193 228.778015,293.414764 238.370209,283.127228 
	C247.166916,273.692810 256.035217,264.322449 264.690247,254.759415 
	C272.172791,246.491867 270.055573,233.849258 260.298767,227.045425 
	C259.233185,226.302368 258.132874,225.572861 257.203278,224.676712 
	C246.682465,214.534302 236.242996,204.307053 225.679733,194.209213 
	C213.224716,182.302994 200.716125,170.451813 188.140198,158.673477 
	C180.670593,151.677612 172.799301,145.092468 165.616974,137.820541 
	C163.767883,135.948395 162.967514,132.055923 163.351166,129.325623 
	C163.588181,127.638916 166.790344,125.622963 168.979553,125.108292 
	C173.871796,123.958160 178.945938,123.417931 183.976746,123.051781 
	C199.421982,121.927635 214.871033,120.757828 230.339417,120.083420 
	C241.195618,119.610085 250.360092,124.211090 258.053680,131.602386 
	C271.355621,144.381653 284.478851,157.346756 297.712769,170.197067 
	C306.762451,178.984421 315.869904,187.712341 324.956970,196.461166 
	C333.683868,204.863174 342.109009,213.614868 351.258270,221.529068 
	C357.260193,226.720810 357.460938,241.454041 351.211823,246.423691 
	C340.689911,254.791245 330.566223,263.659332 320.269470,272.310181 
	C309.717957,281.175110 299.196136,290.075836 288.594421,298.880280 
	C277.506927,308.088135 266.299347,317.151459 255.218979,326.367828 
	C244.496490,335.286530 233.915924,344.375916 223.186920,353.286713 
	C212.227295,362.389008 201.115860,371.308533 190.157852,380.412781 
	C179.430450,389.325439 168.862045,398.429565 158.133011,407.340271 
	C147.173340,416.442535 136.053650,425.352142 125.095581,434.456360 
	C114.368156,443.368988 103.807487,452.482361 93.079231,461.393982 
	C82.120338,470.497253 71.024071,479.434906 60.030693,488.496887 
	C51.933388,495.171631 43.917953,501.945526 35.842300,508.646637 
	C26.259394,516.598450 16.637440,524.503357 7.068720,532.472107 
	C5.668196,533.638489 4.468524,535.045898 3.087955,536.670898 
	C2.333331,536.666687 1.666665,536.333313 0.999999,535.500000 
M180.818253,379.991943 
	C181.192291,379.404785 181.566345,378.817596 181.940384,378.230408 
	C181.054657,378.606628 180.168945,378.982849 178.851425,379.733551 
	C178.696487,380.069550 178.541550,380.405579 178.386597,380.741577 
	C178.948639,380.521729 179.510681,380.301849 180.818253,379.991943 
M251.485153,322.010498 
	C252.075165,321.422913 252.630127,320.794464 253.260391,320.253784 
	C264.845856,310.315216 276.454285,300.403351 288.028015,290.451172 
	C295.627289,283.916565 303.183899,277.332367 310.751251,270.760712 
	C320.924072,261.926392 331.261383,253.271408 341.197754,244.178467 
	C348.093170,237.868347 347.792114,230.323761 341.086029,223.598953 
	C333.442352,215.933960 325.787720,208.279892 318.128632,200.630325 
	C317.030090,199.533173 315.879639,198.487961 314.753235,197.418701 
	C314.406342,197.717621 314.059448,198.016556 313.712585,198.315475 
	C314.490997,199.388290 315.161072,200.563782 316.064972,201.517700 
	C323.360413,209.216721 330.704254,216.869858 338.024078,224.545776 
	C342.433563,229.169769 343.447083,235.254852 340.227020,239.159286 
	C338.329254,241.460403 336.181213,243.606796 333.899170,245.530243 
	C324.130890,253.763626 314.222565,261.830902 304.460114,270.071045 
	C296.928802,276.428009 289.568542,282.987122 282.078796,289.393890 
	C270.984009,298.884430 259.780487,308.248627 248.739304,317.800720 
	C239.778168,325.553314 230.987656,333.503082 222.121643,341.365631 
	C210.425262,351.738220 198.719986,362.100861 187.050064,372.503113 
	C186.121338,373.330963 185.437607,374.433716 184.090256,376.080719 
	C185.668823,375.866791 186.278824,375.971527 186.592346,375.714569 
	C198.242126,366.165558 209.876144,356.597229 221.487076,347.001007 
	C231.334961,338.861877 241.151840,330.685272 251.485153,322.010498 
M312.920441,195.714249 
	C312.457092,195.607346 311.993774,195.500443 311.530426,195.393555 
	C311.872894,195.713806 312.215393,196.034058 312.920441,195.714249 
z"/>
<path fill="#5B5B5B" opacity="1.000000" stroke="none" 
	d="
M433.406647,412.761780 
	C420.923401,401.082520 408.684326,389.675201 396.620331,378.085632 
	C376.386475,358.647552 356.609619,338.716736 335.939636,319.757263 
	C326.530914,311.127106 326.123718,301.527283 331.247223,293.845245 
	C334.001770,289.715057 338.413666,286.620911 342.311096,283.336121 
	C351.580780,275.523407 360.985107,267.870300 370.342896,260.162231 
	C381.469818,250.996933 392.642944,241.887222 403.725647,232.668762 
	C414.449829,223.748474 425.040070,214.667007 435.771027,205.754959 
	C446.733185,196.650818 457.840027,187.720947 468.800232,178.614471 
	C479.529236,169.700058 490.105621,160.601898 500.836578,151.689896 
	C511.798798,142.585831 522.911072,133.662506 533.877136,124.562996 
	C544.484192,115.761360 554.950439,106.789955 565.548889,97.977837 
	C576.505859,88.867645 587.569275,79.885521 598.545349,70.798210 
	C607.013123,63.787544 615.396545,56.674961 623.856201,49.654320 
	C635.077026,40.342236 646.354248,31.098146 657.570740,21.780846 
	C664.264282,16.220615 670.877686,10.563950 677.553894,4.982719 
	C678.556091,4.144910 679.705322,3.482932 681.415283,3.551031 
	C677.746948,7.732409 674.196045,12.024242 670.385803,16.072075 
	C662.540588,24.406649 654.519043,32.575073 646.639038,40.877312 
	C635.465881,52.649178 624.323486,64.450577 613.227722,76.295448 
	C604.864441,85.223404 596.644348,94.285637 588.271973,103.204987 
	C576.708252,115.524162 565.038025,127.743324 553.457031,140.046417 
	C543.816406,150.288040 534.252075,160.601288 524.630249,170.860641 
	C509.229462,187.281998 493.801117,203.677505 478.399902,220.098480 
	C468.777893,230.357559 459.191437,240.649948 449.576233,250.915405 
	C439.505920,261.666656 429.343262,272.332672 419.369049,283.172180 
	C412.927643,290.172363 413.224457,300.904999 420.032623,307.475006 
	C434.587921,321.521301 449.246552,335.460846 463.907135,349.397522 
	C475.911835,360.809509 487.980682,372.154083 500.021027,383.528595 
	C506.161865,389.329834 512.196594,395.249725 518.489929,400.880493 
	C521.473511,403.549957 522.019104,406.950775 520.390625,409.746002 
	C519.194092,411.799927 515.987732,413.570953 513.504944,413.832031 
	C503.355377,414.899292 493.139038,415.327850 482.948639,416.011322 
	C473.255737,416.661469 463.561737,417.298340 453.873444,418.012390 
	C446.582428,418.549774 440.053772,416.191162 433.406647,412.761780 
M359.520477,286.986237 
	C366.391785,281.125580 373.235229,275.231842 380.140961,269.412079 
	C390.296478,260.853546 400.565247,252.428207 410.656433,243.794952 
	C419.159485,236.520386 427.464691,229.014862 435.881714,221.639252 
	C449.117859,210.040817 462.363617,198.453323 475.628326,186.887573 
	C479.957306,183.113007 484.449463,179.521545 488.702087,175.664520 
	C493.710999,171.121567 498.540833,166.381180 503.448303,161.726395 
	C502.333954,161.148712 501.572327,161.083633 501.147888,161.430786 
	C495.184814,166.308228 489.260803,171.233582 483.340912,176.163681 
	C473.134827,184.663406 462.935974,193.171829 452.738342,201.681686 
	C442.796021,209.978561 432.821808,218.237717 422.931946,226.596710 
	C415.527283,232.855133 408.242157,239.254822 400.889954,245.575516 
	C389.182587,255.640381 377.444336,265.669434 365.757233,275.757690 
	C359.156158,281.455719 352.900574,287.592590 345.999329,292.893890 
	C338.435181,298.704376 336.352203,308.321472 343.928894,315.495972 
	C350.941956,322.136688 357.624084,329.126648 364.461975,335.952759 
	C366.362335,337.849854 368.298248,339.711304 370.217865,341.589081 
	C370.582825,341.265411 370.947815,340.941772 371.312805,340.618103 
	C370.502319,339.541870 369.787567,338.374817 368.866241,337.403748 
	C361.563385,329.706512 354.205322,322.061615 346.896118,314.370300 
	C341.083923,308.254242 341.764526,301.099060 348.370056,296.194122 
	C352.044525,293.465668 355.469910,290.401764 359.520477,286.986237 
M504.470337,160.358444 
	C504.800964,160.032608 505.131592,159.706772 505.462219,159.380951 
	C505.003387,159.499374 504.544525,159.617798 504.470337,160.358444 
M373.860870,343.508179 
	C373.490906,343.609070 373.120911,343.709930 372.750946,343.810822 
	C373.130890,343.950073 373.510803,344.089355 373.860870,343.508179 
z"/>
<path fill="#FFFFFF" opacity="1.000000" stroke="none" 
	d="
M251.233795,322.267883 
	C241.151840,330.685272 231.334961,338.861877 221.487076,347.001007 
	C209.876144,356.597229 198.242126,366.165558 186.592346,375.714569 
	C186.278824,375.971527 185.668823,375.866791 184.090256,376.080719 
	C185.437607,374.433716 186.121338,373.330963 187.050064,372.503113 
	C198.719986,362.100861 210.425262,351.738220 222.121643,341.365631 
	C230.987656,333.503082 239.778168,325.553314 248.739304,317.800720 
	C259.780487,308.248627 270.984009,298.884430 282.078796,289.393890 
	C289.568542,282.987122 296.928802,276.428009 304.460114,270.071045 
	C314.222565,261.830902 324.130890,253.763626 333.899170,245.530243 
	C336.181213,243.606796 338.329254,241.460403 340.227020,239.159286 
	C343.447083,235.254852 342.433563,229.169769 338.024078,224.545776 
	C330.704254,216.869858 323.360413,209.216721 316.064972,201.517700 
	C315.161072,200.563782 314.490997,199.388290 313.712585,198.315475 
	C314.059448,198.016556 314.406342,197.717621 314.753235,197.418701 
	C315.879639,198.487961 317.030090,199.533173 318.128632,200.630325 
	C325.787720,208.279892 333.442352,215.933960 341.086029,223.598953 
	C347.792114,230.323761 348.093170,237.868347 341.197754,244.178467 
	C331.261383,253.271408 320.924072,261.926392 310.751251,270.760712 
	C303.183899,277.332367 295.627289,283.916565 288.028015,290.451172 
	C276.454285,300.403351 264.845856,310.315216 253.260391,320.253784 
	C252.630127,320.794464 252.075165,321.422913 251.233795,322.267883 
z"/>
<path fill="#FFFFFF" opacity="1.000000" stroke="none" 
	d="
M179.283234,379.359070 
	C180.168945,378.982849 181.054657,378.606628 181.940384,378.230408 
	C181.566345,378.817596 181.192291,379.404785 180.258743,379.844604 
	C179.560577,379.584564 179.421906,379.471832 179.283234,379.359070 
z"/>
<path fill="#FFFFFF" opacity="1.000000" stroke="none" 
	d="
M312.739166,196.034271 
	C312.215393,196.034058 311.872894,195.713806 311.530426,195.393555 
	C311.993774,195.500443 312.457092,195.607346 312.739166,196.034271 
z"/>
<path fill="#FFFFFF" opacity="1.000000" stroke="none" 
	d="
M179.885971,379.889648 
	C179.510681,380.301849 178.948639,380.521729 178.386597,380.741577 
	C178.541550,380.405579 178.696487,380.069550 179.067322,379.546326 
	C179.421906,379.471832 179.560577,379.584564 179.885971,379.889648 
z"/>
<path fill="#FFFFFF" opacity="1.000000" stroke="none" 
	d="
M359.264008,287.237640 
	C355.469910,290.401764 352.044525,293.465668 348.370056,296.194122 
	C341.764526,301.099060 341.083923,308.254242 346.896118,314.370300 
	C354.205322,322.061615 361.563385,329.706512 368.866241,337.403748 
	C369.787567,338.374817 370.502319,339.541870 371.312805,340.618103 
	C370.947815,340.941772 370.582825,341.265411 370.217865,341.589081 
	C368.298248,339.711304 366.362335,337.849854 364.461975,335.952759 
	C357.624084,329.126648 350.941956,322.136688 343.928894,315.495972 
	C336.352203,308.321472 338.435181,298.704376 345.999329,292.893890 
	C352.900574,287.592590 359.156158,281.455719 365.757233,275.757690 
	C377.444336,265.669434 389.182587,255.640381 400.889954,245.575516 
	C408.242157,239.254822 415.527283,232.855133 422.931946,226.596710 
	C432.821808,218.237717 442.796021,209.978561 452.738342,201.681686 
	C462.935974,193.171829 473.134827,184.663406 483.340912,176.163681 
	C489.260803,171.233582 495.184814,166.308228 501.147888,161.430786 
	C501.572327,161.083633 502.333954,161.148712 503.448303,161.726395 
	C498.540833,166.381180 493.710999,171.121567 488.702087,175.664520 
	C484.449463,179.521545 479.957306,183.113007 475.628326,186.887573 
	C462.363617,198.453323 449.117859,210.040817 435.881714,221.639252 
	C427.464691,229.014862 419.159485,236.520386 410.656433,243.794952 
	C400.565247,252.428207 390.296478,260.853546 380.140961,269.412079 
	C373.235229,275.231842 366.391785,281.125580 359.264008,287.237640 
z"/>
<path fill="#FFFFFF" opacity="1.000000" stroke="none" 
	d="
M504.278015,160.047333 
	C504.544525,159.617798 505.003387,159.499374 505.462219,159.380951 
	C505.131592,159.706772 504.800964,160.032608 504.278015,160.047333 
z"/>
<path fill="#FFFFFF" opacity="1.000000" stroke="none" 
	d="
M373.875793,343.868408 
	C373.510803,344.089355 373.130890,343.950073 372.750946,343.810822 
	C373.120911,343.709930 373.490906,343.609070 373.875793,343.868408 
z"/>
</svg>