<svg version="1.1" id="Layer_1" xmlns="http://www.w3.org/2000/svg" xmlns:xlink="http://www.w3.org/1999/xlink" x="0px" y="0px"
	 width="100%" viewBox="0 0 672 528" enable-background="new 0 0 672 528" xml:space="preserve">
<path fill="#000000" opacity="1.000000" stroke="none" 
	d="
M673.000000,15.555836 
	C669.341125,16.946514 667.280579,19.972284 665.004211,22.523069 
	C656.147522,32.447506 646.935364,42.030518 637.807312,51.700397 
	C620.820374,69.695526 604.162231,88.000488 587.264221,106.080177 
	C579.201782,114.706375 570.824158,123.037369 562.727112,131.631897 
	C541.760132,153.887024 520.776611,176.128021 499.990051,198.551086 
	C490.386688,208.910477 480.859497,219.332336 471.068024,229.520920 
	C455.172607,246.061035 439.552643,262.866394 423.875275,279.614899 
	C421.613434,282.031250 419.410614,284.584137 417.647339,287.369415 
	C413.678040,293.639313 415.132935,302.807953 421.693268,308.018005 
	C429.675995,314.357727 436.233582,322.122437 443.934875,328.751801 
	C454.128204,337.526367 463.372467,347.395355 473.166931,356.643250 
	C487.908539,370.562256 502.773987,384.350098 517.585144,398.195465 
	C519.410217,399.901459 521.088928,401.608795 521.785034,404.217285 
	C523.228149,409.625397 520.413208,413.901794 514.770813,414.330200 
	C501.066589,415.370636 487.314026,415.974915 473.671173,417.540894 
	C466.681152,418.343262 459.759644,418.167938 452.806305,418.311615 
	C442.236389,418.530090 433.320282,414.213715 425.880402,407.160370 
	C411.751251,393.765289 398.144196,379.817413 383.951111,366.492340 
	C367.333405,350.890839 351.087799,334.907410 334.559601,319.220337 
	C325.147491,310.287201 326.036194,295.740753 336.337769,287.735992 
	C355.459930,272.877289 373.619629,256.783630 392.263123,241.304184 
	C410.906372,225.824997 429.687561,210.512039 448.340515,195.044464 
	C464.822876,181.376740 481.175446,167.552551 497.651245,153.876831 
	C518.472351,136.594360 539.388550,119.426369 560.208984,102.143059 
	C573.216553,91.345306 586.092651,80.389313 599.083923,69.571823 
	C611.444702,59.279408 623.918823,49.122982 636.268738,38.817638 
	C648.371704,28.718372 660.380859,18.506729 672.715576,8.172213 
	C673.000000,10.370558 673.000000,12.741115 673.000000,15.555836 
M367.540161,280.051392 
	C373.214478,275.205170 378.894989,270.366150 384.561859,265.511230 
	C397.396545,254.515442 410.252960,243.544785 423.046875,232.501709 
	C434.720551,222.425583 446.390991,212.343689 457.936737,202.121887 
	C467.420837,193.725266 476.719818,185.119522 486.100861,176.606476 
	C479.115997,181.064880 472.584686,186.047638 466.272339,191.293823 
	C454.793610,200.833847 443.440155,210.524689 432.043457,220.163315 
	C421.665283,228.940598 411.287018,237.717850 400.931396,246.521729 
	C392.218262,253.929276 383.405640,261.227264 374.876831,268.842285 
	C364.728058,277.903687 353.994659,286.322388 344.560181,296.172485 
	C343.546906,297.230408 341.788116,298.140015 342.823639,300.238953 
	C351.009338,293.584717 359.025940,287.067963 367.540161,280.051392 
z"/>
<path fill="#000000" opacity="1.000000" stroke="none" 
	d="
M7.437497,529.000000 
	C15.229167,520.298950 23.475050,511.613647 31.683933,502.893555 
	C47.411972,486.186066 63.127823,469.467133 78.831413,452.736694 
	C88.498863,442.437073 98.184662,432.154022 107.772484,421.780548 
	C123.342178,404.935120 139.033386,388.208618 154.860718,371.602295 
	C164.833496,361.138763 174.713058,350.567017 184.529526,339.952057 
	C199.423187,323.846924 214.456436,307.879120 229.535187,291.949036 
	C241.297546,279.522552 252.922836,266.958160 264.316772,254.194138 
	C271.207794,246.474533 271.819275,239.669022 264.025848,231.737228 
	C251.442276,218.930283 238.102768,206.865799 225.075180,194.495468 
	C205.545853,175.951370 186.003250,157.421265 166.488174,138.862213 
	C164.580139,137.047638 162.500290,135.346588 162.643707,132.211563 
	C162.830017,128.138947 163.911987,125.036873 168.665329,124.562660 
	C177.556412,123.675636 186.417465,122.213585 195.326340,121.845451 
	C207.765839,121.331429 220.095551,118.957581 232.590210,119.671356 
	C241.832230,120.199318 250.145264,123.282280 256.986328,129.602341 
	C277.033661,148.122894 296.201294,167.573303 316.097443,186.234039 
	C327.375244,196.811569 337.644623,208.429108 349.640228,218.272186 
	C359.602081,226.446426 357.697174,243.687958 348.467560,250.521866 
	C331.284637,263.244659 315.512299,277.858002 298.943939,291.429474 
	C284.175140,303.526917 269.709625,315.985229 254.729965,327.838013 
	C241.601807,338.225769 229.120789,349.428284 216.269638,360.170074 
	C201.751892,372.305023 187.123383,384.307373 172.574127,396.404785 
	C159.424103,407.338684 146.353790,418.368622 133.178619,429.272034 
	C120.413345,439.836243 107.512291,450.236481 94.758514,460.814453 
	C83.904938,469.816437 73.221992,479.024048 62.380089,488.040344 
	C49.611778,498.658691 36.705379,509.111298 23.967304,519.765503 
	C20.666914,522.526001 17.026188,524.952820 14.184999,528.720886 
	C11.958333,529.000000 9.916667,529.000000 7.437497,529.000000 
M221.389420,345.835388 
	C226.475021,342.907654 230.542801,338.690704 234.999283,334.979675 
	C248.895523,323.407898 262.741180,311.773743 276.499847,300.038788 
	C290.256500,288.305573 303.981628,276.531494 317.533844,264.563873 
	C325.989868,257.096588 334.987061,250.189270 342.566772,241.784073 
	C347.574188,236.231323 346.888550,230.418152 340.535675,224.911514 
	C341.153870,226.432983 341.754211,227.282700 341.817963,228.170898 
	C342.187836,233.326050 344.336456,238.871094 339.181854,243.003845 
	C335.482147,245.970123 331.563049,248.667984 327.924896,251.704880 
	C316.717834,261.059845 305.581329,270.499634 294.449890,279.944733 
	C281.171234,291.211761 267.899231,302.486908 254.675735,313.818481 
	C245.367630,321.794861 235.916214,329.625153 226.948013,337.971161 
	C217.720779,346.558228 207.651871,354.261047 199.442657,363.958252 
	C206.287415,357.703491 214.525024,353.174042 221.389420,345.835388 
z"/>
</svg>